<svg width="32" height="32" viewBox="0 0 32 32" fill="none" xmlns="http://www.w3.org/2000/svg">
<path d="M22.7 30.7368H8.3L5 27.3337V18.0524L8.18 14.7729H10.1V17.1242H8.93L7.04 19.1042V26.2818L9.05 28.3856H21.95L23.96 26.2818V19.1042L22.07 17.1242H20.9V14.7729H22.82L26 18.0524V27.3337L22.7 30.7368Z" fill="#2706CB"/>
<path d="M23.24 17.0976H21.32V14.7773H22.49L23.96 13.2923V5.86722L22.43 4.32033H17.72L16.25 5.86722V14.1895L13.49 17.0358H7.76L5 14.1895V5.09378L7.76 2.2475H9.71V4.5369H8.51L7.04 6.08379V13.1685L8.51 14.7154H12.74L14.21 13.1685V4.84628L16.97 2H23.18L26 4.90815V14.2514L23.24 17.0976Z" fill="black"/>
<ellipse cx="11.4167" cy="20.4414" rx="1.25" ry="1.28907" fill="black"/>
<ellipse cx="19.25" cy="20.2891" rx="1.25" ry="1.28907" fill="black"/>
</svg>
